<svg id="svg" version="1.1" xmlns="http://www.w3.org/2000/svg" xmlns:xlink="http://www.w3.org/1999/xlink" width="400" height="400" viewBox="0, 0, 400,400"><g id="svgg"><path id="path0" d="M134.359 183.964 C 133.214 185.027,132.236 186.185,132.184 186.539 C 132.132 186.892,132.033 187.223,131.963 187.274 C 129.440 189.133,128.069 190.234,128.278 190.234 C 128.424 190.234,128.141 190.650,127.650 191.159 C 127.160 191.667,126.685 192.019,126.596 191.941 C 126.348 191.723,124.261 194.174,124.003 194.985 C 123.878 195.380,123.633 195.703,123.458 195.703 C 121.533 195.703,119.309 200.313,120.934 200.936 C 121.237 201.052,121.484 201.421,121.484 201.756 C 121.484 202.322,131.627 212.891,132.171 212.891 C 132.567 212.891,134.443 214.540,135.726 216.016 C 138.072 218.716,181.421 262.109,181.772 262.109 C 183.472 262.109,199.681 245.883,199.464 244.399 C 199.326 243.460,184.715 228.897,184.203 229.187 C 183.975 229.316,183.913 229.285,184.064 229.117 C 184.334 228.818,181.780 225.866,179.521 223.864 C 178.221 222.713,174.743 219.214,172.537 216.836 C 171.719 215.955,170.888 215.234,170.691 215.234 C 170.494 215.234,170.079 214.745,169.770 214.146 C 169.460 213.548,168.753 212.815,168.197 212.518 C 167.642 212.221,167.188 211.861,167.188 211.718 C 167.188 211.323,164.049 208.008,163.674 208.008 C 163.494 208.008,163.200 207.848,163.021 207.652 C 162.829 207.442,162.935 207.421,163.281 207.600 C 163.801 207.869,161.315 205.459,159.472 203.906 C 158.882 203.410,157.847 202.216,155.830 199.707 C 155.615 199.438,155.559 199.219,155.707 199.219 C 155.972 199.219,153.498 197.264,151.722 196.070 C 151.223 195.735,150.413 194.950,149.921 194.325 C 147.997 191.878,144.629 188.298,142.911 186.872 C 142.366 186.420,141.672 185.713,141.370 185.301 C 138.834 181.849,137.010 181.501,134.359 183.964 M209.264 270.716 C 204.799 275.222,200.994 279.304,200.809 279.786 C 200.505 280.575,202.632 282.836,221.818 302.118 C 250.595 331.041,251.198 331.625,252.263 331.634 C 253.530 331.643,257.662 328.481,260.005 325.709 C 260.243 325.427,261.606 324.079,263.032 322.715 C 264.458 321.350,265.625 320.104,265.625 319.945 C 265.625 319.787,266.064 319.456,266.602 319.212 C 267.139 318.967,267.578 318.527,267.578 318.233 C 267.578 317.940,268.017 317.189,268.554 316.565 C 269.752 315.172,269.752 315.203,268.562 313.450 C 266.857 310.937,260.350 303.906,259.730 303.906 C 259.535 303.906,259.375 303.717,259.375 303.487 C 259.375 302.931,252.159 295.703,251.604 295.703 C 251.366 295.703,251.172 295.466,251.172 295.176 C 251.172 294.885,249.616 293.172,247.714 291.367 C 242.683 286.592,240.013 283.974,227.312 271.362 C 220.423 264.522,218.131 262.453,217.506 262.512 C 217.438 262.518,213.729 266.210,209.264 270.716 " stroke="none" fill="#2ba34c" fill-rule="evenodd"></path><path id="path1" d="M145.313 69.330 C 143.725 70.523,141.826 72.283,140.234 74.037 C 139.912 74.392,138.418 75.892,136.914 77.371 C 130.451 83.725,130.439 83.822,135.547 88.471 C 136.943 89.742,138.158 90.963,138.246 91.185 C 138.490 91.795,139.350 92.578,139.777 92.578 C 139.986 92.578,140.522 93.197,140.969 93.954 C 141.415 94.710,142.399 95.694,143.156 96.141 C 143.912 96.587,144.531 97.123,144.531 97.332 C 144.531 97.829,145.538 98.828,146.039 98.828 C 146.255 98.828,146.783 99.312,147.214 99.902 C 147.979 100.953,148.811 101.796,154.590 107.381 C 156.147 108.887,157.422 110.238,157.422 110.385 C 157.422 110.531,157.846 111.023,158.365 111.478 C 162.269 114.900,163.668 116.277,163.670 116.699 C 163.671 116.968,163.852 117.188,164.071 117.188 C 164.733 117.188,177.734 130.392,177.734 131.064 C 177.734 131.452,177.550 131.581,177.246 131.406 C 176.978 131.251,176.894 131.275,177.061 131.458 C 177.228 131.641,177.732 131.847,178.183 131.916 C 179.153 132.064,180.843 133.573,180.853 134.300 C 180.856 134.588,180.662 134.690,180.408 134.533 C 180.138 134.366,180.063 134.425,180.221 134.681 C 180.844 135.688,186.719 131.322,186.719 129.852 C 186.719 129.593,187.164 129.270,187.709 129.133 C 188.253 128.996,188.896 128.450,189.138 127.919 C 189.381 127.388,189.793 126.953,190.055 126.953 C 190.318 126.953,191.033 126.294,191.645 125.488 C 192.947 123.775,194.461 122.268,196.999 120.160 C 198.668 118.773,199.426 117.188,198.420 117.188 C 197.800 117.188,195.571 115.084,185.488 104.980 C 180.395 99.878,176.036 95.703,175.801 95.703 C 175.566 95.703,175.174 95.264,174.929 94.727 C 174.684 94.189,174.331 93.750,174.143 93.750 C 173.956 93.750,173.677 93.420,173.523 93.016 C 173.368 92.612,171.836 91.090,170.117 89.633 C 168.398 88.177,166.713 86.529,166.371 85.973 C 166.030 85.416,164.799 84.145,163.637 83.147 C 162.475 82.149,159.854 79.612,157.813 77.508 C 155.771 75.405,153.486 73.100,152.734 72.387 C 151.982 71.673,150.664 70.385,149.805 69.526 C 147.926 67.647,147.572 67.632,145.313 69.330 M195.313 120.313 C 195.313 120.527,195.049 120.703,194.727 120.703 C 194.404 120.703,194.141 120.527,194.141 120.313 C 194.141 120.098,194.404 119.922,194.727 119.922 C 195.049 119.922,195.313 120.098,195.313 120.313 M187.020 127.026 C 186.778 127.751,185.938 127.871,185.938 127.181 C 185.938 126.841,186.216 126.563,186.556 126.563 C 186.896 126.563,187.105 126.771,187.020 127.026 M203.696 240.818 C 201.985 242.428,200.463 243.878,200.313 244.041 C 200.163 244.203,198.612 245.963,196.868 247.952 C 191.672 253.877,182.860 262.109,181.715 262.109 C 181.487 262.109,180.227 263.423,178.914 265.029 C 177.602 266.635,174.207 270.302,171.370 273.177 C 168.532 276.052,165.579 279.088,164.807 279.925 C 164.035 280.761,162.277 282.500,160.900 283.789 C 159.524 285.078,158.134 286.426,157.812 286.785 C 156.556 288.182,147.986 296.359,146.496 297.581 C 145.630 298.291,144.922 299.155,144.922 299.501 C 144.922 299.847,144.821 300.029,144.697 299.905 C 144.574 299.782,143.563 300.697,142.451 301.939 C 141.339 303.181,140.123 304.291,139.747 304.406 C 139.372 304.520,138.899 305.026,138.698 305.530 C 138.496 306.033,138.320 306.311,138.306 306.147 C 138.292 305.983,137.214 306.950,135.909 308.296 C 134.605 309.641,133.361 310.742,133.146 310.742 C 132.550 310.742,130.864 313.742,130.861 314.807 C 130.855 317.706,145.904 332.058,148.329 331.466 C 149.438 331.195,190.073 290.774,189.905 290.108 C 189.861 289.931,189.967 289.874,190.142 289.982 C 190.317 290.090,191.883 288.741,193.622 286.984 C 195.360 285.227,197.439 283.270,198.241 282.636 C 199.043 282.001,200.148 280.772,200.696 279.903 C 201.244 279.035,205.487 274.600,210.124 270.048 C 226.971 253.510,225.764 255.350,222.049 251.877 C 220.600 250.522,216.822 246.821,213.653 243.652 C 206.909 236.909,207.630 237.114,203.696 240.818 " stroke="none" fill="#ea8315" fill-rule="evenodd"></path><path id="path2" d="M251.758 66.877 C 251.328 67.123,249.599 68.700,247.916 70.381 C 246.232 72.062,244.650 73.443,244.400 73.450 C 244.150 73.457,244.291 73.723,244.713 74.042 C 245.461 74.608,245.450 74.652,244.237 75.865 C 242.976 77.127,241.961 77.140,243.042 75.881 C 244.207 74.524,244.278 74.110,243.227 74.799 C 242.672 75.163,242.119 75.771,241.999 76.152 C 241.878 76.532,240.685 77.785,239.347 78.938 C 238.009 80.090,236.035 81.982,234.961 83.141 C 233.887 84.301,231.705 86.503,230.112 88.035 C 228.519 89.567,226.849 91.255,226.401 91.787 C 225.953 92.319,224.180 94.199,222.461 95.965 C 220.742 97.731,218.343 100.196,217.129 101.443 C 215.915 102.691,214.333 104.242,213.613 104.891 C 212.893 105.540,211.554 106.903,210.636 107.919 C 209.719 108.934,208.904 109.766,208.825 109.766 C 208.746 109.766,207.914 110.513,206.977 111.426 C 206.039 112.339,204.327 113.877,203.171 114.844 C 200.126 117.391,200.000 117.540,200.000 118.581 C 200.000 119.252,199.034 120.478,196.680 122.796 C 194.854 124.594,193.359 126.238,193.359 126.450 C 193.359 126.663,192.393 127.608,191.211 128.551 C 190.029 129.494,189.063 130.371,189.063 130.500 C 189.063 130.628,188.606 130.942,188.048 131.196 C 187.437 131.474,187.115 131.874,187.240 132.199 C 187.489 132.849,186.330 133.984,185.418 133.984 C 185.059 133.984,184.766 134.127,184.766 134.301 C 184.766 134.995,183.096 136.371,182.523 136.151 C 181.995 135.948,164.495 153.230,141.113 177.043 C 136.675 181.564,136.658 181.596,138.202 182.509 C 138.804 182.864,139.902 183.799,140.644 184.587 C 141.385 185.375,142.422 186.397,142.948 186.858 C 144.551 188.263,145.412 189.159,147.852 191.959 C 150.572 195.082,150.740 195.246,153.290 197.267 C 155.003 198.624,156.268 199.024,155.641 198.010 C 155.515 197.805,155.556 197.662,155.733 197.693 C 155.910 197.724,156.250 197.728,156.490 197.703 C 156.892 197.660,166.030 188.665,176.432 178.074 C 182.002 172.402,199.586 155.312,200.017 155.151 C 200.197 155.083,201.770 156.027,203.512 157.248 C 205.254 158.468,206.786 159.360,206.917 159.229 C 207.048 159.098,207.391 159.187,207.679 159.426 C 208.340 159.975,208.368 159.326,207.715 158.593 C 207.300 158.128,207.329 158.123,207.903 158.557 C 208.666 159.134,212.680 156.173,215.792 152.736 C 216.667 151.771,218.877 149.442,220.703 147.561 C 224.964 143.173,224.963 143.277,220.839 139.076 C 217.770 135.950,217.729 136.321,221.544 132.812 C 224.447 130.142,257.368 97.291,260.931 93.508 C 261.960 92.416,262.319 91.772,262.049 91.502 C 261.778 91.232,261.806 91.008,262.136 90.804 C 262.448 90.611,262.522 90.665,262.342 90.955 C 261.851 91.750,262.725 91.437,263.601 90.505 C 264.219 89.847,264.331 89.487,264.016 89.172 C 263.778 88.935,263.680 88.505,263.797 88.218 C 263.939 87.869,264.099 87.988,264.277 88.574 C 264.424 89.058,264.665 89.453,264.812 89.453 C 265.394 89.453,269.158 85.419,269.372 84.567 C 269.755 83.039,267.219 78.906,265.897 78.906 C 265.676 78.906,265.599 78.802,265.727 78.674 C 266.138 78.263,263.398 76.152,262.767 76.394 C 262.389 76.539,261.991 76.289,261.685 75.714 C 261.242 74.882,261.256 74.851,261.860 75.349 C 262.222 75.648,262.613 75.799,262.727 75.684 C 262.842 75.570,262.366 75.071,261.671 74.575 C 260.975 74.080,260.536 73.885,260.695 74.142 C 260.854 74.399,260.786 74.609,260.544 74.609 C 260.299 74.609,260.202 74.300,260.325 73.913 C 260.473 73.445,260.099 72.797,259.179 71.929 C 258.427 71.220,257.813 70.478,257.813 70.281 C 257.813 70.083,257.558 69.922,257.246 69.922 C 256.934 69.922,256.539 69.673,256.367 69.369 C 256.020 68.755,253.155 66.399,252.778 66.418 C 252.647 66.425,252.188 66.631,251.758 66.877 M253.906 68.220 C 253.906 68.342,253.657 68.347,253.353 68.231 C 253.048 68.114,252.695 68.290,252.567 68.623 C 252.373 69.128,252.233 69.144,251.718 68.717 C 251.159 68.253,251.164 68.159,251.777 67.711 C 252.413 67.246,253.906 67.602,253.906 68.220 M256.567 70.288 C 256.665 70.581,256.519 70.728,256.226 70.630 C 255.944 70.536,255.636 70.228,255.542 69.946 C 255.444 69.653,255.591 69.507,255.884 69.604 C 256.166 69.698,256.473 70.006,256.567 70.288 M246.784 73.047 C 246.291 73.836,245.703 74.091,245.703 73.516 C 245.703 73.110,246.549 72.266,246.956 72.266 C 247.130 72.266,247.053 72.617,246.784 73.047 M245.664 77.971 C 244.428 79.287,243.892 79.139,244.990 77.785 C 245.490 77.169,246.043 76.748,246.221 76.850 C 246.398 76.952,246.148 77.456,245.664 77.971 M261.543 79.213 C 261.167 79.589,260.156 78.903,260.156 78.272 C 260.156 77.671,260.225 77.675,260.940 78.322 C 261.371 78.713,261.642 79.113,261.543 79.213 M266.406 79.688 C 266.406 79.902,266.143 80.078,265.820 80.078 C 265.498 80.078,265.234 79.902,265.234 79.688 C 265.234 79.473,265.498 79.297,265.820 79.297 C 266.143 79.297,266.406 79.473,266.406 79.688 M239.063 84.180 C 239.063 84.502,238.799 84.766,238.477 84.766 C 238.154 84.766,237.891 84.502,237.891 84.180 C 237.891 83.857,238.154 83.594,238.477 83.594 C 238.799 83.594,239.063 83.857,239.063 84.180 M260.510 89.693 C 259.943 90.377,259.580 90.109,259.910 89.250 C 260.042 88.905,260.336 88.737,260.563 88.877 C 260.846 89.052,260.830 89.308,260.510 89.693 M232.813 90.234 C 232.813 90.668,232.552 91.016,232.227 91.016 C 231.632 91.016,231.425 90.189,231.901 89.714 C 232.396 89.218,232.813 89.456,232.813 90.234 M226.313 96.680 C 226.189 97.002,225.931 97.266,225.739 97.266 C 225.548 97.266,225.391 97.002,225.391 96.680 C 225.391 96.357,225.649 96.094,225.964 96.094 C 226.314 96.094,226.450 96.323,226.313 96.680 M248.438 101.775 C 248.438 101.892,247.998 102.461,247.461 103.040 C 246.373 104.214,246.097 103.586,247.157 102.348 C 247.796 101.602,248.438 101.315,248.438 101.775 M207.422 115.820 C 207.422 116.143,207.158 116.406,206.836 116.406 C 206.514 116.406,206.250 116.143,206.250 115.820 C 206.250 115.498,206.514 115.234,206.836 115.234 C 207.158 115.234,207.422 115.498,207.422 115.820 M201.799 120.541 C 201.521 121.265,200.781 121.254,200.781 120.526 C 200.781 120.214,201.001 119.471,201.270 118.875 L 201.758 117.792 201.885 118.890 C 201.954 119.494,201.916 120.237,201.799 120.541 M199.609 122.852 C 199.609 123.174,199.324 123.438,198.976 123.438 C 198.457 123.438,198.430 123.331,198.828 122.852 C 199.096 122.529,199.381 122.266,199.462 122.266 C 199.543 122.266,199.609 122.529,199.609 122.852 M194.922 127.656 C 194.922 128.165,194.029 128.906,193.416 128.906 C 192.965 128.906,192.993 128.745,193.555 128.125 C 194.281 127.323,194.922 127.103,194.922 127.656 M218.732 131.283 C 218.492 131.732,218.201 132.003,218.084 131.886 C 217.762 131.564,218.278 130.469,218.751 130.469 C 219.040 130.469,219.034 130.719,218.732 131.283 M188.672 133.937 C 188.672 134.436,187.523 135.310,187.240 135.026 C 186.956 134.742,187.830 133.594,188.329 133.594 C 188.518 133.594,188.672 133.748,188.672 133.937 M217.969 140.039 C 217.969 140.361,217.793 140.625,217.578 140.625 C 217.363 140.625,217.188 140.361,217.188 140.039 C 217.188 139.717,217.363 139.453,217.578 139.453 C 217.793 139.453,217.969 139.717,217.969 140.039 M182.332 140.698 C 182.091 141.423,181.250 141.543,181.250 140.853 C 181.250 140.513,181.528 140.234,181.868 140.234 C 182.209 140.234,182.417 140.443,182.332 140.698 M219.609 147.344 C 219.245 147.708,219.141 147.604,219.141 146.875 C 219.141 146.146,219.245 146.042,219.609 146.406 C 219.974 146.771,219.974 146.979,219.609 147.344 M175.781 147.070 C 175.781 147.393,175.605 147.656,175.391 147.656 C 175.176 147.656,175.000 147.393,175.000 147.070 C 175.000 146.748,175.176 146.484,175.391 146.484 C 175.605 146.484,175.781 146.748,175.781 147.070 M199.609 151.289 C 199.609 151.852,198.846 152.734,198.359 152.734 C 197.885 152.734,197.986 151.780,198.516 151.250 C 199.129 150.637,199.609 150.654,199.609 151.289 M201.953 151.586 C 201.953 152.028,201.777 152.281,201.563 152.148 C 201.348 152.016,201.172 151.654,201.172 151.344 C 201.172 151.035,201.348 150.781,201.563 150.781 C 201.777 150.781,201.953 151.143,201.953 151.586 M196.484 151.976 C 196.484 152.419,196.309 152.672,196.094 152.539 C 195.879 152.406,195.703 152.044,195.703 151.735 C 195.703 151.425,195.879 151.172,196.094 151.172 C 196.309 151.172,196.484 151.534,196.484 151.976 M169.531 153.516 C 169.531 153.730,169.268 153.906,168.945 153.906 C 168.623 153.906,168.359 153.730,168.359 153.516 C 168.359 153.301,168.623 153.125,168.945 153.125 C 169.268 153.125,169.531 153.301,169.531 153.516 M164.063 156.433 C 164.063 156.782,163.833 156.919,163.479 156.783 C 163.158 156.660,162.992 156.401,163.111 156.209 C 163.452 155.658,164.063 155.801,164.063 156.433 M207.765 156.212 C 208.419 156.626,208.007 157.422,207.138 157.422 C 206.793 157.422,206.626 157.306,206.767 157.165 C 206.909 157.023,206.829 156.672,206.589 156.384 C 206.077 155.766,206.876 155.649,207.765 156.212 M193.270 156.714 C 193.028 157.438,192.188 157.558,192.188 156.868 C 192.188 156.528,192.466 156.250,192.806 156.250 C 193.146 156.250,193.355 156.459,193.270 156.714 M233.510 158.887 C 232.097 160.337,229.560 162.876,227.873 164.529 C 220.821 171.436,219.896 172.653,221.289 173.188 C 221.611 173.312,221.875 173.589,221.875 173.804 C 221.875 174.018,221.611 174.093,221.289 173.969 C 220.967 173.846,220.703 173.845,220.703 173.967 C 220.703 174.386,238.865 192.969,239.275 192.969 C 239.379 192.969,239.981 193.540,240.612 194.238 C 241.706 195.449,241.749 195.462,241.532 194.531 C 241.315 193.604,241.339 193.588,242.005 194.219 C 242.549 194.734,242.605 195.004,242.255 195.427 C 241.895 195.861,242.128 196.263,243.403 197.407 L 245.003 198.844 243.942 200.301 C 243.358 201.102,237.714 206.855,231.400 213.086 C 225.086 219.316,219.920 224.655,219.921 224.950 C 219.921 225.245,223.155 228.716,227.107 232.665 C 231.060 236.613,234.184 239.844,234.052 239.844 C 233.919 239.844,234.209 240.123,234.695 240.464 C 235.318 240.900,235.724 240.964,236.065 240.681 C 236.852 240.028,237.776 240.798,237.134 241.572 C 236.792 241.984,236.768 242.188,237.062 242.188 C 237.303 242.188,237.500 242.001,237.500 241.774 C 237.500 241.546,237.649 241.452,237.832 241.565 C 238.682 242.090,245.708 235.646,245.391 234.631 C 245.334 234.450,245.493 234.370,245.744 234.454 C 245.995 234.537,247.099 233.636,248.198 232.452 C 249.296 231.267,250.591 229.971,251.074 229.573 C 251.558 229.175,251.967 228.555,251.984 228.194 C 252.001 227.834,252.094 227.729,252.190 227.962 C 252.286 228.195,256.759 223.989,262.128 218.615 C 267.498 213.242,271.743 208.745,271.562 208.622 C 271.070 208.288,270.676 207.031,271.064 207.031 C 271.249 207.031,271.508 207.310,271.638 207.650 C 272.007 208.610,274.053 207.147,278.397 202.817 C 280.396 200.825,280.415 200.757,278.906 200.933 C 277.654 201.079,277.607 201.011,278.125 199.805 C 278.310 199.375,278.473 199.254,278.488 199.535 C 278.503 199.816,278.711 199.925,278.950 199.778 C 279.189 199.630,279.538 199.752,279.725 200.048 C 279.967 200.429,280.068 200.265,280.072 199.486 C 280.082 197.622,278.854 196.058,278.405 197.363 C 278.313 197.632,278.286 197.535,278.345 197.149 C 278.469 196.341,275.963 193.889,275.182 194.053 C 274.899 194.113,274.558 193.983,274.423 193.765 C 274.279 193.532,274.428 193.464,274.784 193.601 C 275.808 193.994,275.480 193.513,273.108 191.146 C 268.545 186.591,266.309 184.573,265.942 184.678 C 265.736 184.737,265.682 184.599,265.823 184.371 C 265.963 184.144,264.702 182.570,263.020 180.873 C 261.337 179.177,258.479 176.197,256.669 174.251 C 254.858 172.304,253.299 170.790,253.204 170.884 C 253.110 170.979,252.482 170.400,251.809 169.598 C 251.136 168.795,248.564 166.189,246.094 163.805 C 237.707 155.715,238.259 156.173,237.588 156.727 C 237.107 157.124,236.949 157.126,236.818 156.738 C 236.541 155.916,236.171 156.156,233.510 158.887 M238.738 159.387 C 238.339 160.081,237.952 160.374,237.728 160.150 C 237.183 159.605,238.130 157.779,238.821 158.044 C 239.302 158.229,239.289 158.425,238.738 159.387 M242.114 160.913 C 242.212 161.206,242.065 161.353,241.772 161.255 C 241.490 161.161,241.183 160.853,241.089 160.571 C 240.991 160.278,241.138 160.132,241.431 160.229 C 241.713 160.323,242.020 160.631,242.114 160.913 M185.547 164.235 C 185.547 164.544,185.371 164.906,185.156 165.039 C 184.941 165.172,184.766 164.919,184.766 164.476 C 184.766 164.034,184.941 163.672,185.156 163.672 C 185.371 163.672,185.547 163.925,185.547 164.235 M231.250 165.313 C 230.007 166.320,229.747 165.832,230.883 164.624 C 231.490 163.977,231.877 163.795,231.981 164.108 C 232.070 164.373,231.741 164.916,231.250 165.313 M157.031 165.779 C 157.031 166.441,155.975 166.909,155.654 166.389 C 155.527 166.184,155.531 165.840,155.664 165.625 C 156.025 165.041,157.031 165.154,157.031 165.779 M154.155 167.306 C 154.305 167.456,153.948 167.578,153.362 167.578 C 152.777 167.578,152.397 167.418,152.518 167.222 C 152.760 166.830,153.729 166.880,154.155 167.306 M226.082 168.042 C 225.997 168.297,225.719 168.575,225.464 168.661 C 225.178 168.756,225.091 168.577,225.237 168.197 C 225.509 167.487,226.317 167.339,226.082 168.042 M227.344 169.727 C 227.344 170.049,227.168 170.313,226.953 170.313 C 226.738 170.313,226.563 170.049,226.563 169.727 C 226.563 169.404,226.738 169.141,226.953 169.141 C 227.168 169.141,227.344 169.404,227.344 169.727 M222.957 172.070 C 222.913 172.607,222.761 173.047,222.620 173.047 C 222.479 173.047,222.363 172.607,222.363 172.070 C 222.363 171.533,222.515 171.094,222.701 171.094 C 222.886 171.094,223.002 171.533,222.957 172.070 M150.431 172.381 C 149.930 172.883,149.421 172.495,149.793 171.895 C 149.936 171.662,150.233 171.582,150.452 171.717 C 150.718 171.882,150.712 172.101,150.431 172.381 M179.920 173.633 C 179.295 174.170,178.608 174.609,178.393 174.609 C 177.783 174.609,179.809 172.744,180.469 172.698 C 180.819 172.674,180.598 173.050,179.920 173.633 M226.277 178.486 C 226.405 178.973,226.306 179.174,225.997 179.056 C 225.735 178.955,225.521 178.617,225.521 178.304 C 225.521 177.478,226.047 177.605,226.277 178.486 M144.141 178.906 C 144.141 179.121,143.877 179.297,143.555 179.297 C 143.232 179.297,142.969 179.121,142.969 178.906 C 142.969 178.691,143.232 178.516,143.555 178.516 C 143.877 178.516,144.141 178.691,144.141 178.906 M257.422 179.297 C 257.949 179.824,258.033 180.078,257.678 180.078 C 257.389 180.078,256.834 179.727,256.445 179.297 C 256.044 178.854,255.934 178.516,256.189 178.516 C 256.438 178.516,256.992 178.867,257.422 179.297 M232.784 181.411 C 233.096 181.787,233.111 182.042,232.831 182.215 C 232.286 182.552,231.641 182.122,231.641 181.422 C 231.641 180.705,232.193 180.699,232.784 181.411 M262.695 181.250 C 262.828 181.465,262.673 181.641,262.351 181.641 C 262.029 181.641,261.656 181.465,261.523 181.250 C 261.391 181.035,261.546 180.859,261.868 180.859 C 262.190 180.859,262.563 181.035,262.695 181.250 M260.938 182.813 C 260.938 183.027,260.674 183.203,260.352 183.203 C 260.029 183.203,259.766 183.027,259.766 182.813 C 259.766 182.598,260.029 182.422,260.352 182.422 C 260.674 182.422,260.938 182.598,260.938 182.813 M167.578 183.180 C 167.578 183.641,166.816 184.134,166.536 183.854 C 166.257 183.574,166.750 182.813,167.211 182.813 C 167.413 182.813,167.578 182.978,167.578 183.180 M264.575 183.064 C 264.713 183.203,264.305 183.849,263.668 184.501 C 262.353 185.845,261.589 185.682,262.851 184.327 C 263.303 183.843,263.672 183.304,263.672 183.129 C 263.672 182.751,264.221 182.711,264.575 183.064 M235.742 187.109 C 235.609 187.324,235.247 187.500,234.938 187.500 C 234.628 187.500,234.375 187.324,234.375 187.109 C 234.375 186.895,234.737 186.719,235.179 186.719 C 235.622 186.719,235.875 186.895,235.742 187.109 M238.973 188.208 C 239.058 188.463,238.849 188.672,238.509 188.672 C 238.169 188.672,237.891 188.394,237.891 188.053 C 237.891 187.364,238.732 187.484,238.973 188.208 M268.524 189.403 C 268.785 189.826,267.455 191.406,266.837 191.406 C 266.584 191.406,266.766 190.889,267.249 190.234 C 268.212 188.933,268.227 188.923,268.524 189.403 M245.703 194.759 C 245.703 195.099,245.494 195.308,245.239 195.223 C 244.515 194.982,244.395 194.141,245.085 194.141 C 245.425 194.141,245.703 194.419,245.703 194.759 M274.150 195.453 C 274.234 195.881,274.008 196.094,273.466 196.094 C 273.021 196.094,272.656 195.845,272.656 195.540 C 272.656 195.236,272.437 194.902,272.168 194.799 C 271.899 194.695,272.207 194.656,272.852 194.711 C 273.570 194.773,274.072 195.060,274.150 195.453 M243.750 196.563 C 243.750 197.194,243.634 197.306,243.315 196.987 C 243.076 196.748,242.999 196.361,243.143 196.128 C 243.547 195.474,243.750 195.619,243.750 196.563 M276.953 196.052 C 276.953 196.244,276.689 196.502,276.367 196.626 C 275.772 196.854,275.567 196.438,276.042 195.964 C 276.415 195.590,276.953 195.642,276.953 196.052 M121.094 197.266 C 120.635 197.910,120.347 198.438,120.455 198.438 C 120.562 198.438,121.025 197.910,121.484 197.266 C 121.943 196.621,122.231 196.094,122.124 196.094 C 122.016 196.094,121.553 196.621,121.094 197.266 M274.512 199.316 C 274.266 200.056,273.047 200.161,273.047 199.443 C 273.047 199.080,273.381 198.828,273.861 198.828 C 274.338 198.828,274.607 199.030,274.512 199.316 M244.957 201.106 C 244.559 201.851,243.359 202.987,243.359 202.620 C 243.359 202.401,245.034 200.410,245.229 200.398 C 245.290 200.394,245.168 200.713,244.957 201.106 M272.461 201.172 C 272.461 201.458,272.241 201.766,271.973 201.855 C 271.682 201.952,271.484 201.675,271.484 201.172 C 271.484 200.668,271.682 200.391,271.973 200.488 C 272.241 200.578,272.461 200.885,272.461 201.172 M268.286 208.179 C 268.384 208.472,268.237 208.618,267.944 208.521 C 267.662 208.427,267.355 208.119,267.261 207.837 C 267.163 207.544,267.310 207.397,267.603 207.495 C 267.885 207.589,268.192 207.897,268.286 208.179 M238.957 210.035 C 239.033 210.264,238.824 210.555,238.493 210.682 C 238.071 210.844,237.891 210.673,237.891 210.111 C 237.891 209.308,238.695 209.250,238.957 210.035 M169.922 214.453 C 170.152 214.883,170.537 215.234,170.777 215.234 C 171.018 215.234,170.897 214.883,170.508 214.453 C 170.119 214.023,169.734 213.672,169.652 213.672 C 169.571 213.672,169.692 214.023,169.922 214.453 M262.007 214.723 C 261.644 215.086,261.237 215.274,261.103 215.139 C 260.719 214.755,261.309 214.063,262.021 214.063 C 262.617 214.063,262.616 214.114,262.007 214.723 M230.078 216.383 C 230.078 216.844,229.316 217.337,229.036 217.057 C 228.757 216.777,229.250 216.016,229.711 216.016 C 229.913 216.016,230.078 216.181,230.078 216.383 M227.344 219.727 C 227.344 220.049,227.178 220.313,226.976 220.313 C 226.484 220.313,226.131 219.703,226.443 219.390 C 226.883 218.951,227.344 219.122,227.344 219.727 M255.456 221.191 C 255.442 221.755,253.565 223.226,253.255 222.917 C 252.946 222.607,254.417 220.730,254.980 220.715 C 255.249 220.709,255.463 220.923,255.456 221.191 M226.621 222.461 C 226.621 222.665,226.432 222.895,226.201 222.972 C 225.970 223.049,225.781 222.819,225.781 222.461 C 225.781 222.103,225.970 221.873,226.201 221.950 C 226.432 222.027,226.621 222.257,226.621 222.461 M250.000 227.101 C 250.000 227.182,249.736 227.467,249.414 227.734 C 248.934 228.133,248.828 228.106,248.828 227.587 C 248.828 227.238,249.092 226.953,249.414 226.953 C 249.736 226.953,250.000 227.019,250.000 227.101 M232.743 233.738 C 232.891 234.481,232.008 234.586,231.328 233.906 C 231.070 233.648,230.859 233.100,230.859 232.687 C 230.859 231.741,232.533 232.675,232.743 233.738 " stroke="none" fill="#3b7ce3" fill-rule="evenodd"></path><path id="path3" d="M251.777 67.711 C 251.164 68.159,251.159 68.253,251.718 68.717 C 252.233 69.144,252.373 69.128,252.567 68.623 C 252.695 68.290,253.048 68.114,253.353 68.231 C 254.163 68.541,254.029 68.062,253.179 67.607 C 252.668 67.334,252.251 67.365,251.777 67.711 M255.827 69.551 C 255.407 69.811,255.387 69.996,255.740 70.349 C 256.093 70.702,256.340 70.669,256.801 70.208 C 257.514 69.494,256.752 68.980,255.827 69.551 M258.258 71.036 C 258.506 71.434,259.079 71.983,259.530 72.257 C 260.105 72.605,260.008 72.388,259.204 71.533 C 257.898 70.144,257.604 69.989,258.258 71.036 M246.273 71.510 C 246.131 71.740,246.119 72.031,246.247 72.158 C 246.374 72.285,246.278 72.629,246.035 72.923 C 245.791 73.216,245.707 73.571,245.847 73.711 C 245.987 73.852,246.349 73.629,246.650 73.216 C 247.059 72.658,247.083 72.390,246.744 72.170 C 246.413 71.956,246.449 71.770,246.875 71.490 C 247.229 71.258,247.276 71.103,246.996 71.100 C 246.740 71.096,246.415 71.281,246.273 71.510 M260.417 73.698 C 259.926 74.189,260.157 74.561,260.918 74.503 C 261.493 74.460,261.577 74.323,261.260 73.942 C 260.775 73.357,260.761 73.353,260.417 73.698 M243.797 74.858 C 243.554 75.390,243.218 75.740,243.048 75.635 C 242.879 75.530,242.715 75.784,242.683 76.199 C 242.605 77.236,243.030 77.145,244.263 75.858 C 245.460 74.608,245.525 74.384,244.775 74.096 C 244.457 73.974,244.058 74.285,243.797 74.858 M261.740 75.822 C 262.152 76.590,262.709 76.781,263.030 76.263 C 263.131 76.098,262.794 75.765,262.279 75.522 C 261.426 75.120,261.379 75.146,261.740 75.822 M244.990 77.785 C 244.490 78.402,244.240 78.906,244.433 78.906 C 244.979 78.906,246.584 77.059,246.221 76.850 C 246.043 76.748,245.490 77.169,244.990 77.785 M260.156 78.272 C 260.156 78.634,260.428 79.035,260.759 79.162 C 261.707 79.526,261.799 79.100,260.940 78.322 C 260.225 77.675,260.156 77.671,260.156 78.272 M265.918 79.176 C 265.106 79.388,264.999 80.078,265.779 80.078 C 266.078 80.078,266.424 79.814,266.548 79.492 C 266.671 79.170,266.734 78.927,266.687 78.952 C 266.640 78.976,266.294 79.077,265.918 79.176 M237.891 84.180 C 237.891 84.502,238.154 84.766,238.477 84.766 C 238.799 84.766,239.063 84.502,239.063 84.180 C 239.063 83.857,238.799 83.594,238.477 83.594 C 238.154 83.594,237.891 83.857,237.891 84.180 M263.672 88.406 C 263.672 88.714,263.922 89.174,264.227 89.428 C 264.683 89.806,264.744 89.744,264.571 89.079 C 264.315 88.102,263.672 87.620,263.672 88.406 M259.910 89.250 C 259.580 90.109,259.943 90.377,260.510 89.693 C 260.830 89.308,260.846 89.052,260.563 88.877 C 260.336 88.737,260.042 88.905,259.910 89.250 M231.901 89.714 C 231.425 90.189,231.632 91.016,232.227 91.016 C 232.552 91.016,232.813 90.668,232.813 90.234 C 232.813 89.456,232.396 89.218,231.901 89.714 M225.391 96.680 C 225.391 97.002,225.548 97.266,225.739 97.266 C 225.931 97.266,226.189 97.002,226.313 96.680 C 226.450 96.323,226.314 96.094,225.964 96.094 C 225.649 96.094,225.391 96.357,225.391 96.680 M247.157 102.348 C 246.097 103.586,246.373 104.214,247.461 103.040 C 247.998 102.461,248.438 101.892,248.438 101.775 C 248.438 101.315,247.796 101.602,247.157 102.348 M206.250 115.820 C 206.250 116.143,206.514 116.406,206.836 116.406 C 207.158 116.406,207.422 116.143,207.422 115.820 C 207.422 115.498,207.158 115.234,206.836 115.234 C 206.514 115.234,206.250 115.498,206.250 115.820 M201.270 118.875 C 200.676 120.191,200.642 121.094,201.184 121.094 C 201.746 121.094,202.034 120.187,201.885 118.890 L 201.758 117.792 201.270 118.875 M198.810 119.734 C 198.283 120.275,196.480 122.076,194.804 123.738 C 193.127 125.399,191.328 127.197,190.805 127.734 C 190.282 128.271,188.167 130.351,186.104 132.355 C 184.041 134.359,182.432 136.077,182.527 136.173 C 182.885 136.531,183.892 135.863,184.386 134.940 C 184.667 134.415,185.162 133.984,185.484 133.984 C 186.342 133.984,187.481 132.826,187.240 132.199 C 187.115 131.874,187.437 131.474,188.048 131.196 C 188.606 130.942,189.063 130.628,189.063 130.500 C 189.063 130.371,190.029 129.494,191.211 128.551 C 192.393 127.608,193.359 126.663,193.359 126.450 C 193.359 126.238,194.854 124.594,196.680 122.796 C 198.506 120.999,200.000 119.353,200.000 119.139 C 200.000 118.577,199.876 118.639,198.810 119.734 M198.828 122.852 C 198.430 123.331,198.457 123.438,198.976 123.438 C 199.324 123.438,199.609 123.174,199.609 122.852 C 199.609 122.529,199.543 122.266,199.462 122.266 C 199.381 122.266,199.096 122.529,198.828 122.852 M193.555 128.125 C 192.993 128.745,192.965 128.906,193.416 128.906 C 194.029 128.906,194.922 128.165,194.922 127.656 C 194.922 127.103,194.281 127.323,193.555 128.125 M218.104 131.072 C 217.740 132.019,218.247 132.189,218.732 131.283 C 219.034 130.719,219.040 130.469,218.751 130.469 C 218.522 130.469,218.231 130.740,218.104 131.072 M187.492 134.189 C 187.220 134.517,187.107 134.893,187.240 135.026 C 187.523 135.310,188.672 134.436,188.672 133.937 C 188.672 133.398,188.035 133.535,187.492 134.189 M217.188 140.039 C 217.188 140.361,217.363 140.625,217.578 140.625 C 217.793 140.625,217.969 140.361,217.969 140.039 C 217.969 139.717,217.793 139.453,217.578 139.453 C 217.363 139.453,217.188 139.717,217.188 140.039 M181.250 140.853 C 181.250 141.193,181.459 141.402,181.714 141.317 C 182.438 141.075,182.558 140.234,181.868 140.234 C 181.528 140.234,181.250 140.513,181.250 140.853 M219.141 146.875 C 219.141 147.604,219.245 147.708,219.609 147.344 C 219.974 146.979,219.974 146.771,219.609 146.406 C 219.245 146.042,219.141 146.146,219.141 146.875 M175.000 147.070 C 175.000 147.393,175.176 147.656,175.391 147.656 C 175.605 147.656,175.781 147.393,175.781 147.070 C 175.781 146.748,175.605 146.484,175.391 146.484 C 175.176 146.484,175.000 146.748,175.000 147.070 M198.516 151.250 C 197.986 151.780,197.885 152.734,198.359 152.734 C 198.846 152.734,199.609 151.852,199.609 151.289 C 199.609 150.654,199.129 150.637,198.516 151.250 M201.172 151.344 C 201.172 151.654,201.348 152.016,201.563 152.148 C 201.777 152.281,201.953 152.028,201.953 151.586 C 201.953 151.143,201.777 150.781,201.563 150.781 C 201.348 150.781,201.172 151.035,201.172 151.344 M195.703 151.735 C 195.703 152.044,195.879 152.406,196.094 152.539 C 196.309 152.672,196.484 152.419,196.484 151.976 C 196.484 151.534,196.309 151.172,196.094 151.172 C 195.879 151.172,195.703 151.425,195.703 151.735 M168.359 153.516 C 168.359 153.730,168.623 153.906,168.945 153.906 C 169.268 153.906,169.531 153.730,169.531 153.516 C 169.531 153.301,169.268 153.125,168.945 153.125 C 168.623 153.125,168.359 153.301,168.359 153.516 M163.111 156.209 C 162.992 156.401,163.158 156.660,163.479 156.783 C 163.833 156.919,164.063 156.782,164.063 156.433 C 164.063 155.801,163.452 155.658,163.111 156.209 M206.589 156.384 C 206.829 156.672,206.909 157.023,206.767 157.165 C 206.626 157.306,206.793 157.422,207.138 157.422 C 208.007 157.422,208.419 156.626,207.765 156.212 C 206.876 155.649,206.077 155.766,206.589 156.384 M236.719 156.445 C 236.719 156.803,236.908 157.033,237.139 156.956 C 237.370 156.879,237.559 156.649,237.559 156.445 C 237.559 156.241,237.370 156.011,237.139 155.934 C 236.908 155.857,236.719 156.087,236.719 156.445 M192.188 156.868 C 192.188 157.209,192.396 157.417,192.651 157.332 C 193.376 157.091,193.496 156.250,192.806 156.250 C 192.466 156.250,192.188 156.528,192.188 156.868 M237.811 158.807 C 237.144 160.271,237.943 160.770,238.738 159.387 C 239.289 158.425,239.302 158.229,238.821 158.044 C 238.471 157.910,238.088 158.199,237.811 158.807 M241.089 160.571 C 241.183 160.853,241.490 161.161,241.772 161.255 C 242.065 161.353,242.212 161.206,242.114 160.913 C 242.020 160.631,241.713 160.323,241.431 160.229 C 241.138 160.132,240.991 160.278,241.089 160.571 M184.766 164.476 C 184.766 164.919,184.941 165.172,185.156 165.039 C 185.371 164.906,185.547 164.544,185.547 164.235 C 185.547 163.925,185.371 163.672,185.156 163.672 C 184.941 163.672,184.766 164.034,184.766 164.476 M230.883 164.624 C 230.367 165.173,230.038 165.715,230.151 165.829 C 230.500 166.177,232.153 164.622,231.981 164.108 C 231.877 163.795,231.490 163.977,230.883 164.624 M155.664 165.625 C 155.531 165.840,155.527 166.184,155.654 166.389 C 155.975 166.909,157.031 166.441,157.031 165.779 C 157.031 165.154,156.025 165.041,155.664 165.625 M152.518 167.222 C 152.397 167.418,152.777 167.578,153.362 167.578 C 153.948 167.578,154.305 167.456,154.155 167.306 C 153.729 166.880,152.760 166.830,152.518 167.222 M225.237 168.197 C 225.091 168.577,225.178 168.756,225.464 168.661 C 226.048 168.466,226.369 167.578,225.856 167.578 C 225.646 167.578,225.367 167.856,225.237 168.197 M226.563 169.727 C 226.563 170.049,226.738 170.313,226.953 170.313 C 227.168 170.313,227.344 170.049,227.344 169.727 C 227.344 169.404,227.168 169.141,226.953 169.141 C 226.738 169.141,226.563 169.404,226.563 169.727 M222.363 172.070 C 222.363 172.607,222.479 173.047,222.620 173.047 C 222.761 173.047,222.913 172.607,222.957 172.070 C 223.002 171.533,222.886 171.094,222.701 171.094 C 222.515 171.094,222.363 171.533,222.363 172.070 M149.793 171.895 C 149.421 172.495,149.930 172.883,150.431 172.381 C 150.712 172.101,150.718 171.882,150.452 171.717 C 150.233 171.582,149.936 171.662,149.793 171.895 M178.967 173.651 L 178.051 174.564 179.065 174.456 C 179.623 174.396,180.211 174.203,180.372 174.025 C 180.533 173.848,180.444 173.829,180.176 173.984 C 179.437 174.409,179.591 173.792,180.371 173.200 C 180.915 172.787,180.935 172.687,180.469 172.710 C 180.146 172.726,179.471 173.149,178.967 173.651 M220.443 173.235 C 220.443 173.530,220.765 173.855,221.159 173.958 C 221.553 174.061,221.875 173.992,221.875 173.805 C 221.875 173.618,221.553 173.293,221.159 173.082 C 220.626 172.797,220.443 172.836,220.443 173.235 M225.521 178.304 C 225.521 178.617,225.735 178.955,225.997 179.056 C 226.306 179.174,226.405 178.973,226.277 178.486 C 226.047 177.605,225.521 177.478,225.521 178.304 M142.969 178.906 C 142.969 179.121,143.232 179.297,143.555 179.297 C 143.877 179.297,144.141 179.121,144.141 178.906 C 144.141 178.691,143.877 178.516,143.555 178.516 C 143.232 178.516,142.969 178.691,142.969 178.906 M256.445 179.297 C 256.834 179.727,257.389 180.078,257.678 180.078 C 258.033 180.078,257.949 179.824,257.422 179.297 C 256.992 178.867,256.438 178.516,256.189 178.516 C 255.934 178.516,256.044 178.854,256.445 179.297 M231.641 181.422 C 231.641 182.122,232.286 182.552,232.831 182.215 C 233.111 182.042,233.096 181.787,232.784 181.411 C 232.193 180.699,231.641 180.705,231.641 181.422 M261.523 181.250 C 261.656 181.465,262.029 181.641,262.351 181.641 C 262.673 181.641,262.828 181.465,262.695 181.250 C 262.563 181.035,262.190 180.859,261.868 180.859 C 261.546 180.859,261.391 181.035,261.523 181.250 M259.766 182.813 C 259.766 183.027,260.029 183.203,260.352 183.203 C 260.674 183.203,260.938 183.027,260.938 182.813 C 260.938 182.598,260.674 182.422,260.352 182.422 C 260.029 182.422,259.766 182.598,259.766 182.813 M166.586 183.229 C 166.444 183.458,166.422 183.740,166.536 183.854 C 166.816 184.134,167.578 183.641,167.578 183.180 C 167.578 182.681,166.904 182.714,166.586 183.229 M263.672 183.129 C 263.672 183.304,263.303 183.843,262.851 184.327 C 261.589 185.682,262.353 185.845,263.668 184.501 C 264.305 183.849,264.713 183.203,264.575 183.064 C 264.221 182.711,263.672 182.751,263.672 183.129 M234.375 187.109 C 234.375 187.324,234.628 187.500,234.938 187.500 C 235.247 187.500,235.609 187.324,235.742 187.109 C 235.875 186.895,235.622 186.719,235.179 186.719 C 234.737 186.719,234.375 186.895,234.375 187.109 M237.891 188.053 C 237.891 188.394,238.169 188.672,238.509 188.672 C 238.849 188.672,239.058 188.463,238.973 188.208 C 238.732 187.484,237.891 187.364,237.891 188.053 M267.249 190.234 C 266.766 190.889,266.584 191.406,266.837 191.406 C 267.455 191.406,268.785 189.826,268.524 189.403 C 268.227 188.923,268.212 188.933,267.249 190.234 M241.412 194.155 C 241.422 195.119,242.042 195.864,242.380 195.317 C 242.540 195.058,242.387 194.563,242.038 194.215 C 241.511 193.688,241.407 193.678,241.412 194.155 M244.621 194.604 C 244.862 195.329,245.703 195.449,245.703 194.759 C 245.703 194.419,245.425 194.141,245.085 194.141 C 244.744 194.141,244.536 194.349,244.621 194.604 M272.168 194.799 C 272.437 194.902,272.656 195.236,272.656 195.540 C 272.656 195.845,273.021 196.094,273.466 196.094 C 274.788 196.094,274.226 194.830,272.852 194.711 C 272.207 194.656,271.899 194.695,272.168 194.799 M243.143 196.128 C 242.999 196.361,243.076 196.748,243.315 196.987 C 243.634 197.306,243.750 197.194,243.750 196.563 C 243.750 195.619,243.547 195.474,243.143 196.128 M276.042 195.964 C 275.567 196.438,275.772 196.854,276.367 196.626 C 276.689 196.502,276.953 196.244,276.953 196.052 C 276.953 195.642,276.415 195.590,276.042 195.964 M273.047 199.443 C 273.047 199.806,273.313 200.006,273.698 199.931 C 274.678 199.741,274.813 198.828,273.861 198.828 C 273.381 198.828,273.047 199.080,273.047 199.443 M278.156 199.480 C 278.139 199.731,278.029 200.185,277.912 200.490 C 277.711 201.014,277.844 201.038,279.773 200.814 C 279.927 200.796,279.949 200.507,279.820 200.173 C 279.692 199.838,279.357 199.653,279.076 199.760 C 278.796 199.868,278.481 199.746,278.376 199.490 C 278.236 199.145,278.179 199.143,278.156 199.480 M244.238 201.407 C 243.226 202.562,243.078 203.064,243.967 202.326 C 244.520 201.866,245.493 200.381,245.229 200.398 C 245.167 200.402,244.722 200.856,244.238 201.407 M271.484 201.172 C 271.484 201.675,271.682 201.952,271.973 201.855 C 272.241 201.766,272.461 201.458,272.461 201.172 C 272.461 200.885,272.241 200.578,271.973 200.488 C 271.682 200.391,271.484 200.668,271.484 201.172 M270.981 207.813 C 271.093 208.242,271.430 208.594,271.729 208.594 C 272.174 208.594,272.184 208.453,271.784 207.813 C 271.516 207.383,271.179 207.031,271.036 207.031 C 270.893 207.031,270.868 207.383,270.981 207.813 M267.261 207.837 C 267.355 208.119,267.662 208.427,267.944 208.521 C 268.237 208.618,268.384 208.472,268.286 208.179 C 268.192 207.897,267.885 207.589,267.603 207.495 C 267.310 207.397,267.163 207.544,267.261 207.837 M237.891 210.111 C 237.891 210.673,238.071 210.844,238.493 210.682 C 239.160 210.426,239.078 209.706,238.354 209.465 C 238.097 209.379,237.891 209.666,237.891 210.111 M261.117 214.479 C 260.659 215.220,261.327 215.403,262.007 214.723 C 262.616 214.114,262.617 214.063,262.021 214.063 C 261.665 214.063,261.258 214.250,261.117 214.479 M229.086 216.432 C 228.944 216.661,228.922 216.943,229.036 217.057 C 229.316 217.337,230.078 216.844,230.078 216.383 C 230.078 215.884,229.404 215.917,229.086 216.432 M226.443 219.390 C 226.131 219.703,226.484 220.313,226.976 220.313 C 227.178 220.313,227.344 220.049,227.344 219.727 C 227.344 219.122,226.883 218.951,226.443 219.390 M253.770 221.719 C 253.373 222.264,253.141 222.803,253.255 222.917 C 253.565 223.226,255.442 221.755,255.456 221.191 C 255.477 220.374,254.535 220.669,253.770 221.719 M225.781 222.461 C 225.781 222.819,225.970 223.049,226.201 222.972 C 226.432 222.895,226.621 222.665,226.621 222.461 C 226.621 222.257,226.432 222.027,226.201 221.950 C 225.970 221.873,225.781 222.103,225.781 222.461 M248.828 227.587 C 248.828 228.106,248.934 228.133,249.414 227.734 C 249.736 227.467,250.000 227.182,250.000 227.101 C 250.000 227.019,249.736 226.953,249.414 226.953 C 249.092 226.953,248.828 227.238,248.828 227.587 M230.859 232.687 C 230.859 233.564,231.568 234.375,232.333 234.375 C 233.128 234.375,232.748 233.188,231.738 232.519 C 230.930 231.983,230.859 231.996,230.859 232.687 M245.510 234.768 C 245.643 234.985,245.478 235.267,245.142 235.396 C 244.806 235.525,244.531 235.815,244.531 236.040 C 244.531 236.265,244.883 236.131,245.313 235.742 C 246.168 234.968,246.327 234.375,245.680 234.375 C 245.453 234.375,245.376 234.552,245.510 234.768 M235.311 241.139 C 235.738 241.529,236.397 241.768,236.775 241.669 C 237.153 241.570,237.545 241.690,237.646 241.936 C 237.779 242.262,237.837 242.258,237.860 241.922 C 237.919 241.040,236.690 240.162,236.091 240.659 C 235.763 240.932,235.346 240.976,235.040 240.770 C 234.762 240.583,234.883 240.749,235.311 241.139 " stroke="none" fill="#3f74e4" fill-rule="evenodd"></path><path id="path4" d="M143.935 68.888 C 140.342 71.751,133.110 79.134,131.592 81.487 C 129.618 84.547,129.531 84.326,134.637 89.231 C 137.179 91.672,148.823 103.180,160.515 114.804 C 172.206 126.427,181.917 135.937,182.094 135.938 C 182.490 135.938,188.344 130.300,194.263 124.219 C 195.622 122.822,197.469 121.003,198.367 120.175 C 200.510 118.200,200.493 118.132,197.009 114.786 C 195.365 113.207,183.773 101.675,171.250 89.160 C 157.713 75.632,148.192 66.406,147.766 66.406 C 147.372 66.406,145.648 67.523,143.935 68.888 M149.805 69.526 C 150.664 70.385,151.982 71.673,152.734 72.387 C 153.486 73.100,155.771 75.405,157.813 77.508 C 159.854 79.612,162.475 82.149,163.637 83.147 C 164.799 84.145,166.030 85.416,166.371 85.973 C 166.713 86.529,168.398 88.177,170.117 89.633 C 171.836 91.090,173.368 92.612,173.523 93.016 C 173.677 93.420,173.956 93.750,174.143 93.750 C 174.331 93.750,174.684 94.189,174.929 94.727 C 175.174 95.264,175.566 95.703,175.801 95.703 C 176.036 95.703,180.395 99.878,185.488 104.980 C 195.571 115.084,197.800 117.188,198.420 117.188 C 199.426 117.188,198.668 118.773,196.999 120.160 C 194.461 122.268,192.947 123.775,191.645 125.488 C 191.033 126.294,190.318 126.953,190.055 126.953 C 189.793 126.953,189.381 127.388,189.138 127.919 C 188.896 128.450,188.253 128.996,187.709 129.133 C 187.164 129.270,186.719 129.599,186.719 129.864 C 186.719 130.540,181.657 135.212,181.218 134.941 C 181.021 134.819,180.856 134.510,180.853 134.254 C 180.844 133.690,179.361 132.266,178.418 131.918 C 178.042 131.779,177.734 131.390,177.734 131.053 C 177.734 130.388,164.726 117.188,164.071 117.188 C 163.852 117.188,163.671 116.968,163.670 116.699 C 163.668 116.277,162.269 114.900,158.365 111.478 C 157.846 111.023,157.422 110.531,157.422 110.385 C 157.422 110.238,156.147 108.887,154.590 107.381 C 148.811 101.796,147.979 100.953,147.214 99.902 C 146.783 99.312,146.255 98.828,146.039 98.828 C 145.538 98.828,144.531 97.829,144.531 97.332 C 144.531 97.123,143.912 96.587,143.156 96.141 C 142.399 95.694,141.415 94.710,140.969 93.954 C 140.522 93.197,139.986 92.578,139.777 92.578 C 139.350 92.578,138.490 91.795,138.246 91.185 C 138.158 90.963,136.943 89.742,135.547 88.471 C 130.439 83.822,130.451 83.725,136.914 77.371 C 138.418 75.892,139.912 74.392,140.234 74.037 C 145.588 68.137,147.510 67.231,149.805 69.526 M194.141 120.313 C 194.141 120.527,194.404 120.703,194.727 120.703 C 195.049 120.703,195.313 120.527,195.313 120.313 C 195.313 120.098,195.049 119.922,194.727 119.922 C 194.404 119.922,194.141 120.098,194.141 120.313 M185.938 127.181 C 185.938 127.521,186.146 127.730,186.401 127.645 C 187.126 127.403,187.246 126.563,186.556 126.563 C 186.216 126.563,185.938 126.841,185.938 127.181 " stroke="none" fill="#b45c72" fill-rule="evenodd"></path></g></svg>